<svg version="1.1" xmlns="http://www.w3.org/2000/svg" style="display: block;" viewBox="0 0 2048 2048" width="1024" height="1024" preserveAspectRatio="none">
<path transform="translate(0,0)" fill="rgb(8,67,132)" d="M 1019.93 843.486 C 1022.03 841.191 1020.77 842.002 1023.98 841.209 C 1031.51 842.922 1050.7 857.364 1059.02 862.324 C 1076.78 872.856 1094.74 883.062 1112.88 892.936 C 1201.03 940.95 1297.01 972.912 1396.35 987.328 C 1398.5 1002.19 1401.56 1022.01 1402.42 1036.88 C 1409.76 1164.13 1389.52 1311.02 1341.29 1428.58 C 1321.66 1476.98 1295.98 1522.7 1264.86 1564.64 C 1212.1 1635.19 1144.11 1691.96 1066.35 1733.13 C 1056 1738.61 1030.3 1753.87 1019.78 1751.44 C 1002.71 1743.35 987.597 1736.57 970.851 1727.32 C 900.242 1688.32 838.317 1635.34 788.849 1571.62 C 667.976 1415.49 627.031 1179.82 651.637 987.296 C 679.008 982.03 699.802 979.801 728.383 972.968 C 807.081 953.521 882.745 923.389 953.267 883.412 C 976.776 870.314 997.165 857.222 1019.93 843.486 z"/>
<path transform="translate(0,0)" fill="rgb(15,83,160)" d="M 1019.93 843.486 L 1021.22 844.262 L 1024.22 843.031 C 1023.61 843.959 1023.99 843.434 1022.98 844.55 C 1024.79 879.669 1023.94 914.544 1023.93 949.761 C 1024.19 996.75 1024.12 1043.74 1023.71 1090.73 C 1021.94 1092.64 1022.73 1092.09 1020.22 1092.93 L 1019.61 1093.77 C 1022.16 1093.96 1023.33 1093.96 1025.86 1094.51 C 991.115 1095.53 962.252 1106.26 937.909 1131.9 C 916.01 1154.88 904.186 1185.65 905.062 1217.38 C 906.233 1254.13 922.188 1280.44 948.387 1304.76 L 949.558 1305.85 C 934.684 1366.93 924.18 1433.12 910.352 1494.96 C 942.807 1495.03 977.585 1494.29 1009.72 1495.19 C 1015.25 1495.81 1018.53 1495.96 1023.98 1496.02 L 1024 1684.51 C 1023.95 1705.25 1024.57 1726.69 1023.52 1747.41 C 1023.45 1748.72 1020.78 1750.73 1019.78 1751.44 C 1002.71 1743.35 987.597 1736.57 970.851 1727.32 C 900.242 1688.32 838.317 1635.34 788.849 1571.62 C 667.976 1415.49 627.031 1179.82 651.637 987.296 C 679.008 982.03 699.802 979.801 728.383 972.968 C 807.081 953.521 882.745 923.389 953.267 883.412 C 976.776 870.314 997.165 857.222 1019.93 843.486 z"/>
<path transform="translate(0,0)" fill="rgb(251,199,23)" d="M 1025.86 1094.51 C 1059.54 1095.74 1088.17 1107.87 1111.27 1132.82 C 1132.66 1156.07 1144.05 1186.8 1142.98 1218.38 C 1141.45 1255.33 1125.74 1281.25 1099.24 1305.6 C 1110.19 1366.91 1125.43 1432.64 1137.55 1494.39 C 1129.1 1495.25 1120.42 1494.95 1111.93 1495.04 C 1077.92 1495.41 1043.72 1494.5 1009.72 1495.19 C 977.585 1494.29 942.807 1495.03 910.352 1494.96 C 924.18 1433.12 934.684 1366.93 949.558 1305.85 L 948.387 1304.76 C 922.188 1280.44 906.233 1254.13 905.062 1217.38 C 904.186 1185.65 916.01 1154.88 937.909 1131.9 C 962.252 1106.26 991.115 1095.53 1025.86 1094.51 z"/>
<path transform="translate(0,0)" fill="rgb(8,67,132)" d="M 1014.67 1135.33 C 1021.18 1135 1027.31 1134.6 1033.8 1135.33 C 1072.68 1139.69 1101.24 1171.79 1102.85 1210.58 C 1103.79 1231.53 1096.35 1251.99 1082.16 1267.43 C 1074.33 1275.8 1064.7 1282.19 1054.52 1287.37 L 1089.28 1455.12 C 1066.61 1455.11 1038.8 1455.86 1016.57 1454.97 C 1001.93 1456.12 974.64 1455.17 959.1 1455.02 C 971.404 1400.92 982.541 1341.89 993.702 1287.25 C 988.357 1284.33 983.295 1281.57 978.347 1277.99 C 961.116 1265.7 949.529 1247.01 946.177 1226.12 C 942.861 1205.01 948.188 1183.46 960.954 1166.33 C 974.471 1148.1 992.51 1138.54 1014.67 1135.33 z"/>
<path transform="translate(0,0)" fill="rgb(15,83,160)" d="M 993.702 1287.25 C 988.357 1284.33 983.295 1281.57 978.347 1277.99 C 961.116 1265.7 949.529 1247.01 946.177 1226.12 C 942.861 1205.01 948.188 1183.46 960.954 1166.33 C 974.471 1148.1 992.51 1138.54 1014.67 1135.33 C 1019.26 1136.16 1020.63 1135.54 1023.28 1138.18 C 1024.42 1145.04 1024.02 1179.99 1024.04 1188.56 C 1024.41 1228.21 1024.3 1267.86 1023.7 1307.5 L 1023.84 1406.38 C 1023.83 1419.37 1024.52 1440.01 1023.45 1452.4 L 1016.57 1454.97 C 1001.93 1456.12 974.64 1455.17 959.1 1455.02 C 971.404 1400.92 982.541 1341.89 993.702 1287.25 z"/>
<path transform="translate(0,0)" fill="rgb(8,67,132)" d="M 1631.52 708.583 C 1648.27 707.266 1663.9 708.766 1679.68 714.842 C 1702.07 723.459 1720.1 740.627 1729.82 762.559 C 1739.99 786.028 1736.76 806.96 1727.73 829.842 C 1737.12 824.404 1745.81 819.8 1755.41 814.825 C 1764.66 831.107 1774.45 851.269 1783.91 868.47 C 1771.24 876.089 1755.69 884.111 1742.48 891.557 C 1720.34 904.189 1698.26 916.94 1676.25 929.807 C 1658.22 940.273 1640.12 950.874 1622.11 961.204 C 1596.53 975.867 1573.33 990.467 1542.71 988.517 C 1509.51 986.403 1489.4 971.035 1468.09 947.325 C 1438.19 910.342 1423.19 864.009 1439.54 817.79 C 1455.12 821.266 1470.96 824.396 1486.6 827.715 C 1481.92 853.646 1480.09 868.8 1493.14 892.696 C 1521.42 944.488 1550.09 927.032 1588.75 905.893 C 1517.32 893.597 1498.13 815.05 1539.18 760.762 C 1562.49 729.925 1593.55 714.258 1631.52 708.583 z M 1634.24 876.942 C 1644.66 875.001 1676.81 856.007 1682.01 846.444 C 1703.18 807.463 1682.76 771.663 1638.49 774.126 C 1616.28 779.007 1601.58 787.133 1588.67 806.371 C 1565.47 840.946 1595.31 881.678 1634.24 876.942 z"/>
<path transform="translate(0,0)" fill="rgb(8,67,132)" d="M 274.851 900.43 C 309.793 900.878 341.182 913.582 361.973 942.489 C 393.035 985.674 374.187 1042.39 365.448 1090.39 C 374.338 1092.78 391.452 1095.37 401.224 1097.19 L 467.287 1109.73 C 463.075 1132.73 459.249 1156.22 454.513 1179.09 C 429.037 1173.84 402.949 1169.87 377.776 1164.33 L 155.399 1122.62 C 162.39 1090.32 167.312 1056.01 173.925 1023.52 C 177.664 1005.15 180.245 984.867 186.642 967.294 C 190.959 955.183 197.399 943.937 205.659 934.084 C 224.276 912.133 246.736 902.669 274.851 900.43 z M 225.892 1064.6 C 244.623 1068.53 263.88 1071.41 282.748 1075.1 L 307.798 1079.54 C 314.644 1038.16 341.621 966.549 270.302 970.12 C 255.53 973.581 243.64 981.592 239.334 996.512 C 233.14 1017.98 229.766 1042.6 225.892 1064.6 z"/>
<path transform="translate(0,0)" fill="rgb(8,67,132)" d="M 1288.94 425.969 C 1353.6 414.469 1415.34 457.573 1426.83 522.237 C 1438.32 586.902 1395.2 648.632 1330.53 660.107 C 1265.89 671.578 1204.18 628.477 1192.69 563.83 C 1181.21 499.184 1224.3 437.465 1288.94 425.969 z M 1313.75 601.329 C 1381.75 582.236 1378.54 477.023 1305.73 484.268 C 1294.52 487.317 1288.49 489.815 1279.45 498.059 C 1252.27 522.848 1245.05 576.843 1282.59 596.638 C 1292.14 601.721 1303.13 603.377 1313.75 601.329 z"/>
<path transform="translate(0,0)" fill="rgb(8,67,132)" d="M 438.755 687.239 C 484.214 688.009 506.168 715.681 542.146 739.336 C 555.62 748.194 557.095 751.996 569.183 740.172 C 583.454 750.876 599.299 763.582 613.413 774.674 C 608.853 784.377 602.919 793.077 596.846 801.819 C 583.29 821.334 570.496 827.783 548.459 816.118 C 553.423 833.276 555.152 848.303 551.294 866.045 C 545.914 889.844 531.444 910.596 510.973 923.872 C 474.93 946.994 434.635 934.537 412.128 899.753 C 388.859 851.191 423.549 794.983 460.092 763.511 C 426.037 737.299 404.511 751.288 388.925 787.551 C 381.526 804.767 380.831 824.725 379.25 843.324 C 363.461 841.75 347.733 839.613 332.097 836.916 C 333.611 772.473 369.724 698.809 438.755 687.239 z M 480.558 872.539 C 509.554 867.544 518.705 840.585 515.26 814.311 C 513.513 800.986 501.698 791.091 490.521 784.77 C 480.919 794.437 473.366 801.985 465.756 813.458 C 450.817 835.98 445.855 866.99 480.558 872.539 z"/>
<path transform="translate(0,0)" fill="rgb(8,67,132)" d="M 1707.57 970.41 C 1778.24 964.583 1831.58 1006.75 1832.36 1078.94 C 1832.66 1107.58 1823.35 1134.93 1803.06 1155.52 C 1777.6 1181.36 1741.94 1188.76 1706.99 1189.03 C 1700.91 1141.23 1694.7 1085.17 1690.54 1037.22 C 1635.06 1054.87 1631.52 1105.75 1679.77 1136.02 C 1675.59 1153.08 1670.01 1171.59 1665.23 1188.54 C 1654.56 1184.32 1642.41 1177.17 1633.47 1170.07 C 1589.18 1134.91 1583.15 1056.69 1619.09 1013.7 C 1642.36 985.882 1672.65 974.193 1707.57 970.41 z M 1742.22 1122.52 C 1753.15 1118.84 1760.67 1116.43 1769.67 1108.96 C 1778.54 1100.44 1783.93 1091.53 1784.34 1078.75 C 1784.66 1066.87 1780.22 1055.35 1772 1046.76 C 1760.89 1035.24 1747.78 1032.71 1732.7 1031.92 C 1734.94 1060.49 1741.05 1094.9 1742.22 1122.52 z"/>
<path transform="translate(0,0)" fill="rgb(8,67,132)" d="M 975.077 298.137 C 984.132 298.348 993.371 299.405 1002.45 299.66 C 1062.85 301.355 1123.83 306.269 1184.15 307.943 C 1183.05 327.519 1181.93 346.415 1181.75 366.046 C 1139.91 367.304 1086.62 360.834 1042.95 360.75 C 1041.62 380.31 1040.21 405.65 1040.13 425.039 C 1052.85 424.744 1070.54 426.146 1083.62 426.84 L 1158.77 430.89 C 1158.01 441.416 1157.43 451.954 1157.04 462.5 C 1156.73 470.405 1156.5 478.313 1156.36 486.224 C 1128.31 483.498 1098.18 483.878 1069.92 481.971 C 1061.33 481.392 1045.35 481.53 1037.8 479.893 L 1033.59 598.103 C 1013.45 597.813 983.579 596.768 963.795 594.908 L 975.077 298.137 z"/>
<path transform="translate(0,0)" fill="rgb(8,67,132)" d="M 623.655 502.455 C 632.656 501.787 641.917 501.913 650.961 501.884 C 650.924 517.146 652.272 535.117 653.025 550.597 C 625.24 548.934 596.428 553.283 576.243 574.638 C 570.239 580.99 569.561 595.302 577.367 600.024 C 595.146 610.777 622.431 592.22 640.501 587.764 C 650.438 583.959 659.447 582.072 669.84 579.857 C 732.184 566.575 764.367 641.895 727.266 687.7 C 700.537 720.7 665.449 740.857 621.245 745.751 C 609.21 746.726 600.972 746.509 589.02 746.057 C 589.067 729.367 588.623 712.68 587.689 696.016 C 619.725 696.567 653.112 693.846 677.352 669.837 C 681.631 665.669 683.699 655.99 682.56 650.34 C 678.426 629.384 643.583 643.31 630.742 648.228 C 592.261 663.568 540.184 678.89 520.71 627.329 C 495.782 561.331 566.538 510.337 623.655 502.455 z"/>
<path transform="translate(0,0)" fill="rgb(8,67,132)" d="M 820.668 402.415 C 846.394 400.775 863.036 403.199 886.575 413.149 C 882.584 428.929 878.561 444.135 874.946 460.038 C 857.293 452.448 837.321 448.708 818.084 450.432 C 807.482 451.382 792.876 457.006 786.463 465.609 C 783.944 468.987 783.272 472.748 783.934 476.887 C 789.107 509.217 874.694 475.169 912.706 504.635 C 925.49 514.545 932.039 529.605 933.683 545.363 C 935.709 564.769 931.107 581.968 918.481 597.138 C 896.101 624.03 857.236 634.978 823.763 637.924 C 796.97 638.576 778.758 635.662 753.828 626.091 C 757.787 609.469 762.357 593.482 767.011 577.063 C 786.669 584.221 807.51 590.869 828.607 588.974 C 838.184 587.886 862.233 582.832 867.081 573.588 C 882.261 544.643 848.079 544.83 832.318 545.09 C 803.835 545.56 768.084 550.374 744.966 532.985 C 719.17 513.582 717.748 468.642 737.31 444.556 C 757.733 418.603 788.758 406.484 820.668 402.415 z"/>
<path transform="translate(0,0)" fill="rgb(8,67,132)" d="M 1525.99 536.401 C 1531.62 538.734 1566.35 571.533 1573.74 578.357 C 1563.96 588.529 1554.43 598.949 1545.18 609.605 C 1579.81 599.066 1610.34 601.944 1635.02 630.484 C 1623.28 643.789 1604.56 664.14 1591.81 676.225 C 1575.91 661.037 1556.1 643.376 1532.53 644.755 C 1514.7 645.797 1496.27 671.949 1484.76 685.121 C 1483.91 686.36 1471.64 699.569 1469.52 701.931 L 1426.92 748.995 C 1410.9 733.613 1392.49 719.155 1377.12 703.165 C 1417.26 657.131 1459.28 611.95 1499.69 566.104 C 1508.29 556.353 1518.28 546.78 1525.99 536.401 z"/>
</svg>